# xmcd CD database file
#
# Track frame offsets:
#	150
#	11483
#	28272
#	44370
#	69354
#	90541
#	103859
#	120117
#	152030
#	163110
#	177097
#
# Disc length: 3268 seconds
#
# Revision: 0
# Processed by: cddbd v1.5.2PL0 Copyright (c) Steve Scherf et al.
# Submitted via: CDex 1.70beta2
#
DISCID=800cc20b
DTITLE=Satoko Fujii - When We Were There (Four)
DYEAR=2006
DGENRE=Jazz
TTITLE0=Sandstorm
TTITLE1=Runaway Radio
TTITLE2=When We Were There
TTITLE3=In Your Dream
TTITLE4=A Path Through The Garden
TTITLE5=Nourishment
TTITLE6=Nocturne
TTITLE7=The Line Of The Heart
TTITLE8=An Excursion
TTITLE9=Inori
TTITLE10=A Diversion
EXTD=YEAR: 2006
EXTT0=
EXTT1=
EXTT2=
EXTT3=
EXTT4=
EXTT5=
EXTT6=
EXTT7=
EXTT8=
EXTT9=
EXTT10=
PLAYORDER=
